<svg xmlns="http://www.w3.org/2000/svg" width="14" height="14" viewBox="0 0 14 14"><defs><style>.a{fill:#006fbc;}</style></defs><g transform="translate(0 -0.001)"><path class="a" d="M9.779,1.125,3.425,4.378.9,3.136,7.141.054a.511.511,0,0,1,.455,0Z" transform="translate(-0.375 0)"/><path class="a" d="M16.492,4.36l-6.465,3.2L7.606,6.37l-.35-.178,6.36-3.252.35.177Z" transform="translate(-3.023 -1.225)"/><path class="a" d="M6.486,10.16,6.479,16.9.287,13.668A.541.541,0,0,1,0,13.192V6.957L2.624,8.25v2.273a.525.525,0,1,0,1.05,0V8.775l.35.17Z" transform="translate(0 -2.898)"/><path class="a" d="M19.371,6.969l-6.458,3.189L12.906,16.9l6.472-3.379Z" transform="translate(-5.377 -2.903)"/></g></svg>