<svg xmlns="http://www.w3.org/2000/svg" width="14" height="16" viewBox="0 0 14 16"><defs><style>.a{fill:#006fbc;}</style></defs><g transform="translate(-0.001 0.002)"><g transform="translate(0.001 -0.002)"><g transform="translate(0 0)"><path class="a" d="M13.8,124.955a7.492,7.492,0,0,0-3.354-4.817.814.814,0,0,0-.408-.116c-1-.009-1.991-.005-2.986-.005H4.885a2.25,2.25,0,0,0-2.141.785l-.082.072a7.545,7.545,0,0,0-2.652,6.21,3.3,3.3,0,0,0,1.751,2.845,8.138,8.138,0,0,0,3.739.953c1.029.053,2.064.042,3.093,0a8.891,8.891,0,0,0,2.8-.541,3.6,3.6,0,0,0,2.489-2.64A6.214,6.214,0,0,0,13.8,124.955Zm-5.122,2.977a3.428,3.428,0,0,1-1.388.482v1.036H6.513v-.977a6.215,6.215,0,0,1-2.089-.392c.094-.311.186-.612.271-.9.433.105.848.23,1.272.3a3.03,3.03,0,0,0,1.421-.052c.335-.1.6-.28.638-.649a.73.73,0,0,0-.482-.742c-.32-.153-.666-.255-1-.389A9.279,9.279,0,0,1,5.24,125.1a1.415,1.415,0,0,1-.047-2.506,3.023,3.023,0,0,1,1.223-.456c.133-.022.169-.074.166-.192-.007-.26,0-.52,0-.8h.76v.892c.305.031.591.047.87.093s.555.123.856.192c-.089.308-.169.582-.243.839-.429-.07-.837-.166-1.25-.195a4.4,4.4,0,0,0-1.006.061.69.69,0,0,0-.56.461.543.543,0,0,0,.284.706c.411.212.854.372,1.282.554a11.1,11.1,0,0,1,1.041.453A1.572,1.572,0,0,1,8.679,127.932Z" transform="translate(-0.001 -114.92)"/><path class="a" d="M74.789,1.531a4.07,4.07,0,0,1-1.06,2.013.7.7,0,0,1-.558.237c-1.643-.008-3.289,0-4.933,0a.675.675,0,0,1-.4-.124,3.2,3.2,0,0,1-1.1-1.718,1.464,1.464,0,0,1-.012-.545A.879.879,0,0,1,67.615.65a3.335,3.335,0,0,1,.551-.026,1.787,1.787,0,0,0,1.085-.29A3.915,3.915,0,0,1,69.692.1c.347-.157.577-.138.8.156a8.743,8.743,0,0,1,.6,1c.078.138.139.285.208.428l.085-.009c.034-.081.074-.16.1-.243.053-.161.089-.328.149-.486a1.052,1.052,0,0,1,.983-.707A6.4,6.4,0,0,1,74,.332.906.906,0,0,1,74.789,1.531Z" transform="translate(-63.743 0.002)"/><path class="a" d="M90.255,93.544a.825.825,0,0,1-.34.065q-2.8.006-5.59,0h-.066c-.266-.009-.444-.142-.44-.324s.176-.3.452-.3h2.851c.95,0,1.9,0,2.851,0a.63.63,0,0,1,.311.073.269.269,0,0,1,.139.249A.272.272,0,0,1,90.255,93.544Z" transform="translate(-80.097 -89.037)"/></g></g></g></svg>