<svg xmlns="http://www.w3.org/2000/svg" width="16.371" height="12" viewBox="0 0 16.371 12"><defs><style>.a{fill:#006fbc;}</style></defs><g transform="translate(-0.003 0.001)"><path class="a" d="M72.552,245.2a.543.543,0,0,0-.925-.219q-.806.8-1.6,1.6a.191.191,0,0,1-.26.043,7.685,7.685,0,0,0-3.037-.728,7.466,7.466,0,0,0-3.373.736,13.8,13.8,0,0,0-4.755,3.727.571.571,0,0,0,.008.889,14.341,14.341,0,0,0,2.227,2.145c.444.341.909.657,1.4,1.009a1.663,1.663,0,0,0-.154.121c-.449.448-.9.9-1.348,1.349a.546.546,0,0,0-.1.644.5.5,0,0,0,.571.271.879.879,0,0,0,.381-.231q4.312-4.3,8.614-8.608l2.168-2.167A.567.567,0,0,0,72.552,245.2ZM64.3,252.235a2.628,2.628,0,0,1,.262-3.255,2.655,2.655,0,0,1,3.451-.457Z" transform="translate(-58.39 -244.81)"/><path class="a" d="M243.464,336.428a13.517,13.517,0,0,1-5.205,3.976,7.261,7.261,0,0,1-3.066.573,6.969,6.969,0,0,1-1.993-.361c.043-.048.074-.087.108-.121.546-.546,1.089-1.094,1.64-1.634a.328.328,0,0,1,.234-.082,2.7,2.7,0,0,0,2.888-2.125,6.759,6.759,0,0,0,.047-.843.3.3,0,0,1,.058-.18c.831-.838,1.666-1.672,2.534-2.541.489.417.987.8,1.441,1.238s.873.907,1.3,1.373A.517.517,0,0,1,243.464,336.428Z" transform="translate(-227.233 -330.078)"/></g></svg>