<?xml version="1.0" encoding="utf-8"?>
<!-- Generator: Adobe Illustrator 16.0.0, SVG Export Plug-In . SVG Version: 6.00 Build 0)  -->
<!DOCTYPE svg PUBLIC "-//W3C//DTD SVG 1.1//EN" "http://www.w3.org/Graphics/SVG/1.1/DTD/svg11.dtd">
<svg version="1.1" id="Layer_1" xmlns="http://www.w3.org/2000/svg" xmlns:xlink="http://www.w3.org/1999/xlink" x="0px" y="0px"
	 width="16.5px" height="16.531px" viewBox="0 0 16.5 16.531" enable-background="new 0 0 16.5 16.531" xml:space="preserve">
<path fill="none" stroke="#000000" stroke-miterlimit="10" d="M15.75,12.003v2.263c0.003,0.833-0.67,1.512-1.502,1.515
	c-0.048,0-0.096-0.002-0.143-0.007c-2.32-0.252-4.551-1.045-6.509-2.314c-1.822-1.158-3.367-2.703-4.525-4.525
	c-1.274-1.967-2.067-4.208-2.315-6.54c-0.075-0.83,0.537-1.563,1.366-1.638C2.168,0.752,2.213,0.75,2.258,0.75H4.52
	c0.758-0.008,1.404,0.549,1.509,1.3c0.096,0.724,0.273,1.435,0.528,2.119C6.764,4.72,6.632,5.341,6.218,5.76L5.26,6.718
	c1.074,1.888,2.637,3.452,4.526,4.525l0.957-0.958c0.419-0.414,1.041-0.547,1.592-0.34c0.684,0.256,1.395,0.434,2.119,0.529
	C15.21,10.581,15.768,11.238,15.75,12.003z"/>
</svg>
