<svg xmlns="http://www.w3.org/2000/svg" width="21.853" height="20" viewBox="0 0 21.853 20"><defs><style>.a{fill:#006fbc;}</style></defs><g transform="translate(0 -21.705)"><g transform="translate(14.578 36.255)"><g transform="translate(0 0)"><path class="a" d="M344.272,362.612A2.725,2.725,0,1,0,347,365.337,2.728,2.728,0,0,0,344.272,362.612Zm0,3.815a1.09,1.09,0,1,1,1.09-1.09A1.091,1.091,0,0,1,344.272,366.427Z" transform="translate(-341.547 -362.612)"/></g></g><g transform="translate(0 21.705)"><path class="a" d="M21.679,25.724a.816.816,0,0,0-.644-.314H5.046L4.31,22.333a.818.818,0,0,0-.8-.628H.817a.817.817,0,1,0,0,1.635H2.87L5.526,34.456a.817.817,0,0,0,.8.628H19.046a.817.817,0,0,0,.793-.621l1.989-8.038A.819.819,0,0,0,21.679,25.724Zm-3.272,7.724H6.967l-1.53-6.4H19.991Z" transform="translate(0 -21.705)"/></g><g transform="translate(4.687 36.255)"><g transform="translate(0 0)"><path class="a" d="M112.531,362.612a2.725,2.725,0,1,0,2.725,2.725A2.728,2.728,0,0,0,112.531,362.612Zm0,3.815a1.09,1.09,0,1,1,1.09-1.09A1.091,1.091,0,0,1,112.531,366.427Z" transform="translate(-109.806 -362.612)"/></g></g></g></svg>