<svg xmlns="http://www.w3.org/2000/svg" width="15" height="15" viewBox="0 0 15 15"><defs><style>.a{fill:#c1c1c1;}</style></defs><path class="a" d="M9.952,7.209A5.183,5.183,0,1,0,7.209,9.952,3.97,3.97,0,1,0,9.952,7.209ZM5.966,3.471a1.61,1.61,0,0,0,.35-1.6L6.016.96A4.319,4.319,0,0,1,9.185,3.6L8.007,5.022a.733.733,0,0,1-.948.154l-.944-.587a.731.731,0,0,1-.149-1.118Zm-4.835.26.948.385a.851.851,0,0,1,.417.793A1.7,1.7,0,0,0,3.424,6.5c.386.171.541.19.693.54l1.02,2.447A4.308,4.308,0,0,1,1.131,3.731ZM6.053,9.4,4.929,6.7A1.751,1.751,0,0,0,3.78,5.7a.853.853,0,0,1-.4-.788A1.7,1.7,0,0,0,2.41,3.3l-.9-.364A4.306,4.306,0,0,1,5.064.881l.416,1.266a.731.731,0,0,1-.159.726,1.609,1.609,0,0,0,.329,2.463l.944.587a1.616,1.616,0,0,0,2.088-.339l.771-.929A4.31,4.31,0,0,1,6.053,9.4Zm4.977,4.723a3.091,3.091,0,1,1,3.091-3.091A3.094,3.094,0,0,1,11.03,14.121Z"/><path class="a" d="M337.784,321.409l-1.007.908-.46-.429a.439.439,0,0,0-.6.643l.755.7a.439.439,0,0,0,.594.005l1.306-1.178a.439.439,0,0,0-.589-.653Z" transform="translate(-325.747 -311.883)"/></svg>