<?xml version="1.0" encoding="utf-8"?>
<!-- Generator: Adobe Illustrator 16.0.0, SVG Export Plug-In . SVG Version: 6.00 Build 0)  -->
<!DOCTYPE svg PUBLIC "-//W3C//DTD SVG 1.1//EN" "http://www.w3.org/Graphics/SVG/1.1/DTD/svg11.dtd">
<svg version="1.1" id="Layer_1" xmlns="http://www.w3.org/2000/svg" xmlns:xlink="http://www.w3.org/1999/xlink" x="0px" y="0px"
	 width="147.75px" height="50px" viewBox="0 0 147.75 50" enable-background="new 0 0 147.75 50" xml:space="preserve">
<g transform="translate(53.732 27.481)">
	<path fill="#034EA2" d="M24.889,3.258c-0.94-0.397-1.949-0.608-2.971-0.618h-6.434c-1.225-0.044-2.451,0.059-3.652,0.307
		C10.908,3.096,10.035,3.472,9.29,4.04c-0.893,0.827-1.37,2.01-1.3,3.226v14.356c0.024,0.457,0.38,0.827,0.836,0.869
		c0.34,0.035,0.684,0.035,1.024,0c0.43-0.023,0.777-0.356,0.819-0.785c0.025-0.249,0.025-0.501,0-0.75c0-1.059,0-2.133,0-3.191
		c0-0.495,0-0.495,0.512-0.495h9.114c1.262,0.006,2.52-0.161,3.739-0.495c1.928-0.414,3.298-2.128,3.276-4.1V7.117
		c0.062-1.662-0.899-3.191-2.423-3.857L24.889,3.258z M22.588,14.59c-0.787,0.154-1.586,0.239-2.388,0.256h-8.879
		c-0.546,0-0.546,0-0.546-0.563V7.406c-0.077-1.062,0.659-2.011,1.707-2.199c0.708-0.15,1.427-0.241,2.15-0.273h6.554
		c0.719,0.051,1.426,0.207,2.1,0.461c0.861,0.248,1.432,1.066,1.364,1.961v4.779c0.135,1.218-0.743,2.314-1.962,2.449
		c-0.034,0.004-0.068,0.006-0.104,0.009L22.588,14.59z"/>
	<path fill="#034EA2" d="M46.836,2.968c-0.908-0.295-1.859-0.438-2.815-0.428h-8.399c-0.908,0.012-1.812,0.108-2.701,0.291
		c-1.828,0.266-3.174,1.852-3.139,3.699v6.521c-0.024,1.038,0.406,2.035,1.178,2.731c0.979,0.833,2.215,1.303,3.5,1.33
		c1.91,0.119,3.84,0.119,5.752,0.154c0.229-0.003,0.459-0.031,0.683-0.085c0.532-0.075,0.901-0.568,0.826-1.101
		c-0.002-0.014-0.005-0.028-0.007-0.043c0.047-0.516-0.333-0.973-0.85-1.021c-0.041-0.003-0.082-0.005-0.123-0.003h-3.41
		c-0.97,0.002-1.939-0.064-2.899-0.2c-1.14-0.04-2.031-0.997-1.991-2.137c0.002-0.05,0.006-0.101,0.012-0.15v-1.112
		c0-0.357,0-0.545,0.528-0.545h15.138c0.818,0,1.108-0.308,1.108-1.109V6.347C49.325,4.798,48.33,3.391,46.836,2.968z M46.069,8.822
		H33.047c-0.375,0-0.495-0.119-0.479-0.478c0.025-0.358,0.025-0.718,0-1.075c-0.133-1.143,0.686-2.176,1.828-2.309
		c0.057-0.006,0.115-0.011,0.172-0.012c0.473-0.092,0.953-0.132,1.434-0.119h7.545c0.663,0.031,1.318,0.158,1.945,0.375
		c0.67,0.242,1.119,0.875,1.127,1.586c0,0.529,0,1.041,0,1.57s-0.138,0.461-0.479,0.461H46.069z"/>
	<path fill="#034EA2" d="M94.01,16.298c-0.02,0.446-0.346,0.82-0.785,0.9c-0.285,0.072-0.576,0.112-0.87,0.118h-16.5
		c-0.238,0.026-0.479,0.026-0.717,0c-0.645-0.089-1.095-0.685-1.005-1.329c0.029-0.213,0.117-0.414,0.254-0.582
		c0.42-0.477,0.902-0.896,1.434-1.246l12.152-8.652c0.166-0.119,0.305-0.27,0.41-0.444H76.312c-0.292-0.002-0.583-0.03-0.87-0.085
		c-0.512-0.126-0.845-0.62-0.77-1.143c-0.105-0.539,0.232-1.067,0.769-1.194c0.318-0.026,0.638-0.026,0.956,0h15.637
		c0.75,0,1.16,0.272,1.313,0.785c0.157,0.602-0.073,1.238-0.58,1.6c-0.888,0.666-1.707,1.3-2.7,1.946l-10.8,7.611
		c-0.085,0-0.171,0.172-0.256,0.256c-0.007,0.033-0.007,0.068,0,0.101h13.399c0.304,0.007,0.605,0.046,0.9,0.119
		C93.873,15.188,94.061,15.598,94.01,16.298z"/>
	<path fill="#FFA938" d="M19.41-11.009v0.171c-0.059,0.057-0.126,0.103-0.2,0.137c-1.86,0.717-3.755,1.314-5.564,2.133
		c-1.64,0.761-3.231,1.622-4.766,2.577C7.617-5.24,6.422-4.284,5.211-3.482c-0.603,0.454-1.174,0.95-1.707,1.485
		C2.463-0.99,1.285,0.035,0.244,1.109C-0.45,1.831-1.1,2.595-1.702,3.396c-0.956,1.301-1.877,2.662-2.8,3.941
		c-0.516,0.489-1.224,0.721-1.929,0.632c-0.639-0.19-1.19-0.602-1.553-1.161c-0.6-0.666-1.143-1.382-1.707-2.082l-1.96-2.286
		l-1.127-1.263c-0.239-0.256-0.563-0.495-0.393-0.9c0.134-0.498,0.577-0.85,1.092-0.869c0.434-0.016,0.865,0.066,1.263,0.238
		c1.421,0.686,2.682,1.662,3.7,2.867c0.188,0.199,0.341,0.461,0.529,0.648C-6.481,3.308-6.276,3.34-6.13,3.234
		c0.028-0.02,0.052-0.044,0.072-0.072c0.495-0.699,0.99-1.416,1.536-2.064c0.629-0.771,1.314-1.495,2.048-2.167
		c0.944-0.845,1.967-1.576,2.957-2.344C1.908-4.503,3.446-5.435,5.07-6.196c1.553-0.768,3.157-1.468,4.762-2.133
		c1.069-0.474,2.163-0.89,3.277-1.246c1.4-0.427,2.85-0.751,4.267-1.109l1.6-0.324c0.142-0.017,0.285-0.017,0.427,0L19.41-11.009z"
		/>
	<path fill="#034EA2" d="M73.75,3.703c0.098,0.537-0.261,1.053-0.799,1.148c-0.029,0.006-0.059,0.01-0.088,0.012
		c-0.193,0.017-0.387,0.017-0.58,0h-4.1c-0.375,0-0.512,0.1-0.512,0.495v10.601c0,0.512,0,1.023-0.58,1.246
		c-0.553,0.239-1.187,0.202-1.707-0.101c-0.284-0.188-0.447-0.513-0.428-0.853v-10.5c0-0.974,0.138-0.871-0.869-0.887
		c-0.292-0.004-0.584-0.032-0.87-0.086c-0.513-0.119-0.718-0.478-0.7-1.143s0.29-0.922,0.785-0.99c0.369-0.034,0.74-0.034,1.109,0
		c0.357,0,0.545,0,0.545-0.546v-2.187c0-1.041,0.479-1.435,1.554-1.365c1.075,0.068,1.212,0.427,1.229,1.313v2.2
		c0,0.58,0,0.58,0.563,0.58h4.488c0.528-0.003,0.959,0.422,0.962,0.951c0.001,0.035-0.001,0.071-0.005,0.107L73.75,3.703z"/>
	<path fill="#034EA2" d="M61.225,4.726c-0.271,0.115-0.56,0.178-0.854,0.188h-2.986c-0.689,0.09-1.365,0.262-2.014,0.513
		c-0.816,0.284-1.336,1.085-1.264,1.946v8.516c0,1.246-0.666,1.707-1.877,1.468c-0.543-0.087-0.93-0.577-0.887-1.126V7.304
		c-0.099-2.096,1.354-3.947,3.412-4.352c1.24-0.305,2.514-0.447,3.789-0.428h2.301c0.452,0.001,0.84,0.324,0.922,0.768
		c0.188,0.548-0.043,1.15-0.546,1.435L61.225,4.726z"/>
	<path fill="#034EA2" d="M5.876,16.69c-0.276,0.493-0.819,0.775-1.382,0.718c-0.491,0.025-0.97-0.16-1.314-0.513l-8.26-8
		c0-0.034,0-0.067,0-0.101c0.399-0.228,0.781-0.484,1.143-0.768c0.27-0.28,0.499-0.596,0.683-0.939
		c0.222-0.393,0.256-0.409,0.563-0.1l6.69,6.563c0.529,0.495,1.041,1.007,1.553,1.536C6.02,15.481,6.154,16.146,5.876,16.69z"/>
	<path fill="#034EA2" d="M-6.838,8.703l-1.247,1.194c-2.3,2.271-4.625,4.54-6.912,6.827c-0.432,0.479-1.065,0.725-1.707,0.666
		c-0.688-0.006-1.241-0.568-1.236-1.256c0.002-0.275,0.096-0.541,0.265-0.758c0.327-0.404,0.687-0.781,1.075-1.127l7.115-7.188
		l0.307-0.272c0.506,0.912,1.343,1.596,2.338,1.91L-6.838,8.703z"/>
	<path fill="#1705CC" d="M-25.953,1.499c-0.95,1.681-1.365,3.611-1.192,5.533c0.261,3.147,1.32,6.176,3.077,8.801
		c0.665,1.053,1.532,1.963,2.552,2.678c0.238,0.166,0.489,0.288,0.775,0.465c-0.238,0-0.441,0.066-0.644,0.077
		c-2.379,0.138-14.413-6.101-15.076-12.958c-0.728-8.31,3.188-11.27,3.319-11.436l0,0L-33.5-5.208
		c-2.087,0.924-3.899,2.373-5.259,4.206c-1.679,2.232-2.859,4.799-3.458,7.526c0.005,0.048,0.005,0.097,0,0.144
		c-0.262-0.354-0.525-0.652-0.727-0.984c-0.71-1.209-1.18-2.544-1.385-3.932c-0.252-1.416-0.308-2.861-0.167-4.293
		c0.267-6.248,5.012-11.555,11.579-12.949c1.747-0.432,3.543-0.634,5.342-0.6c1.599-0.021,3.172,0.404,4.543,1.229
		c1.159,0.744,2.007,1.885,2.385,3.21c0.38,1.229,0.49,2.525,0.322,3.8c-0.048,0.888-0.196,1.768-0.441,2.623
		C-21.066-4.32-24.61-0.829-25.953,1.499L-25.953,1.499z"/>
	<path fill="#E2800A" d="M-25.094-18.622c-2.001,1.888-5.149,1.813-7.059-0.166c-0.944-1.013-1.454-2.356-1.419-3.741
		c0.053-2.788,2.356-5.005,5.144-4.952c1.228,0.023,2.405,0.494,3.311,1.322c2.087,1.962,2.188,5.245,0.227,7.332
		C-24.956-18.757-25.024-18.689-25.094-18.622z"/>
	<g transform="matrix(1, 0, 0, 1, -53.73, -27.48)">
		<path fill="#1C44D3" d="M11.385,34.196c0,0,3.168-18.029,21.546-11.764c0,0,4.309-13.554-11.027-10.741S7.583,30.36,11.385,34.196
			z"/>
	</g>
</g>
</svg>
