<svg xmlns="http://www.w3.org/2000/svg" width="15" height="15" viewBox="0 0 15 15"><defs><style>.a{fill:#ffa938;}</style></defs><g transform="translate(3.214)"><path class="a" d="M102.936,0a.536.536,0,0,0-.536.536V1.607h1.071V.536A.536.536,0,0,0,102.936,0Z" transform="translate(-102.4 0)"/></g><g transform="translate(10.714)"><path class="a" d="M341.869,0a.536.536,0,0,0-.536.536V1.607H342.4V.536A.536.536,0,0,0,341.869,0Z" transform="translate(-341.333 0)"/></g><g transform="translate(0 1.607)"><path class="a" d="M13.393,51.2H11.786v2.143a.536.536,0,1,1-1.071,0V51.2H4.286v2.143a.536.536,0,1,1-1.071,0V51.2H1.607A1.607,1.607,0,0,0,0,52.807V62.986a1.607,1.607,0,0,0,1.607,1.607H13.393A1.607,1.607,0,0,0,15,62.986V52.807A1.607,1.607,0,0,0,13.393,51.2Zm.536,11.786a.536.536,0,0,1-.536.536H1.607a.536.536,0,0,1-.536-.536V56.021H13.929Z" transform="translate(0 -51.2)"/></g><g transform="translate(2.679 7.5)"><path class="a" d="M86.94,238.933H85.869a.536.536,0,1,0,0,1.071H86.94a.536.536,0,1,0,0-1.071Z" transform="translate(-85.333 -238.933)"/></g><g transform="translate(6.429 7.5)"><path class="a" d="M206.407,238.933h-1.071a.536.536,0,0,0,0,1.071h1.071a.536.536,0,0,0,0-1.071Z" transform="translate(-204.8 -238.933)"/></g><g transform="translate(10.179 7.5)"><path class="a" d="M325.874,238.933H324.8a.536.536,0,0,0,0,1.071h1.071a.536.536,0,0,0,0-1.071Z" transform="translate(-324.267 -238.933)"/></g><g transform="translate(2.679 9.643)"><path class="a" d="M86.94,307.2H85.869a.536.536,0,0,0,0,1.071H86.94a.536.536,0,0,0,0-1.071Z" transform="translate(-85.333 -307.2)"/></g><g transform="translate(6.429 9.643)"><path class="a" d="M206.407,307.2h-1.071a.536.536,0,0,0,0,1.071h1.071a.536.536,0,0,0,0-1.071Z" transform="translate(-204.8 -307.2)"/></g><g transform="translate(10.179 9.643)"><path class="a" d="M325.874,307.2H324.8a.536.536,0,0,0,0,1.071h1.071a.536.536,0,0,0,0-1.071Z" transform="translate(-324.267 -307.2)"/></g><g transform="translate(2.679 11.786)"><path class="a" d="M86.94,375.467H85.869a.536.536,0,1,0,0,1.071H86.94a.536.536,0,1,0,0-1.071Z" transform="translate(-85.333 -375.467)"/></g><g transform="translate(6.429 11.786)"><path class="a" d="M206.407,375.467h-1.071a.536.536,0,0,0,0,1.071h1.071a.536.536,0,0,0,0-1.071Z" transform="translate(-204.8 -375.467)"/></g><g transform="translate(10.179 11.786)"><path class="a" d="M325.874,375.467H324.8a.536.536,0,0,0,0,1.071h1.071a.536.536,0,0,0,0-1.071Z" transform="translate(-324.267 -375.467)"/></g></svg>